<svg version="1.1" xmlns="http://www.w3.org/2000/svg" xmlns:xlink="http://www.w3.org/1999/xlink" viewBox="0 0 251.8 288.4" xml:space="preserve">
	<path style="fill: #444;" d="M243.7,167.5l0,35.1c0,10.7-1.6,21.8-4.6,31.9l-18.3,51.4c-0.5,1.5-1.9,2.5-3.5,2.5l-16.3,0c-2.8-0.7-3.2-2.5-3.2-3.6 c0-2.1,1.2-3.7,3.2-4.2l0.4,0h13.4l17.6-48.2c2.7-10.1,4.1-20.1,4.1-29.8v-34.8c0-7.4-5.7-13.2-12.9-13.2h-13.2l0,19 c-0.7,2.8-2.5,3.2-3.6,3.2c-2.1,0-3.7-1.2-4.2-3.2l0-0.4v-22.5c0-4.1-3.4-7.5-7.5-7.5h-18.6l0,19c-0.7,2.8-2.5,3.2-3.6,3.2 c-2.1,0-3.7-1.2-4.2-3.2l0-0.4v-22.5c0-4.1-3.4-7.5-7.5-7.5h-18.6v30c0,2.4-2,3.9-3.9,3.9c-2.4,0-3.9-2-3.9-3.9V77.5 c-0.3-6.6-5.7-12-12.4-12.3c-3.5-0.3-6.9,0.9-9.5,3.2c-2.6,2.4-4.2,5.6-4.3,9.2l0,129.5c0,0.9-0.4,1.9-1,2.6c-1.4,1.4-3.9,1.4-5.4,0 l-30-25.5c-3.2-2.9-8-3.1-11.7-0.5c-2.1,1.5-3.6,3.7-4,6.3c-0.4,2.5,0.1,5.1,1.7,7.2c0.5,0.7,2.6,3.5,12.5,17.5 c14.3,20.1,35.9,50.4,47.3,65.9l12.5,0c2.8,0.7,3.2,2.5,3.2,3.6c0,2.1-1.2,3.7-3.2,4.2l-0.4,0h-14.1c-1.1,0-2.4-0.5-3.1-1.6 c-14.8-19.9-58.1-80.9-60.8-85.1l0,0c-4.7-6.3-4.2-15.2,1-21.1c6.2-7.2,17.2-8.1,24.3-1.9l23.6,20.1V77.5c0.3-10.8,9-19.5,19.8-19.8 c5.6-0.3,10.9,1.6,15.1,5.4c4.1,3.8,6.4,8.9,6.6,14.4l0,47.1h18.6c7.1,0,12.9,4.5,14.7,11.1h19.2c7.1,0,12.9,4.5,14.7,11.1h13.5 c5.6,0,10.9,2.3,14.8,6.2C241.8,156.8,243.8,162,243.7,167.5z M251.4,20.1c-1,4.1-3.7,7.6-7.6,9.7c-6.8,4.4-16.2,2.8-21.4-3.4 L169,45.4h-1.2c-1.6,0-3-1-3.5-2.5l0-0.1c-0.5-1.9,0.4-4.2,2.5-4.8l52.7-18.4c-0.5-2.6-0.5-4.9,0-6.9c2-8.7,10.7-14.1,19.5-12.2 c4.2,1,7.9,3.6,10.2,7.3C251.6,11.5,252.4,15.9,251.4,20.1z M237.4,8.1L237,8c-0.3-0.1-1.1-0.1-1.4-0.1c-4,0.3-7.4,3.1-8.5,7 c-0.5,2.4-0.2,4.7,1,6.6c1.3,1.8,3.1,3,5.4,3.5c4.6,1,9.5-2.1,10.5-6.7C245,13.8,242,9.1,237.4,8.1z M196.6,89.1l-21.5-8.9 c-1.5-1-2.3-2.9-1.8-4.4l0.1-0.2c0.9-1.8,2.8-2.8,4.7-2.3l0.2,0.1l21.8,9.2c2.1-2.5,4.5-4.2,7.2-5c1.6-0.6,3.6-1,5.6-1 c8.8,0,16.2,7.6,16.2,16.5c0,8.8-7.6,16.2-16.5,16.2c-7,0-13.2-4.4-15.5-10.9C195.8,95.5,195.7,92.3,196.6,89.1z M203.1,97.2 c2.2,4.2,7.3,5.9,11.8,3.8l0.2-0.1c4.6-1.5,6.9-6.4,5.4-11c-1.3-3.5-4.5-5.9-8.2-5.9c-0.7,0-1.8,0.3-2.9,0.5l-2.5,0.8 C202.6,87.7,201,92.8,203.1,97.2z M21.3,40.3c-1.4-4.1-1.1-8.5,0.8-12.3c1.6-3.8,5.1-6.9,9.3-8.3c4.3-1.3,8.6-1,12.5,1 c6.8,3.1,10.5,10.9,8.6,18.2l21.3,9.1c1,0.5,1.7,1.2,2.1,2.1c0.4,0.9,0.4,2-0.1,2.9c-0.5,1.4-1.9,2.4-3.5,2.4 c-0.5,0-0.9-0.2-1.1-0.3h-0.1l-22-9.5c-1.9,2.4-4.3,4.1-7.2,5c-1.6,0.6-3.5,1-5.3,1c-2.4,0-4.6-0.5-7.2-1.6l-0.1,0 C25.6,47.8,22.7,44.4,21.3,40.3z M40.7,27.4c-1.1-0.7-2.3-1-3.7-1c-0.8,0-1.8,0.2-2.8,0.5c-2.3,0.8-4.1,2.3-5.1,4.3 c-2.1,4.6-0.3,9.9,4.1,12.1c4.4,2,9.8,0.2,11.8-4.1c1-2.1,1.1-4.5,0.4-6.8c-0.8-2.3-2.3-4-4.4-5L40.7,27.4z M32.4,109.7 c0.9,7.1-2.9,14-9.5,16.9c-1.7,0.9-3.9,1.3-6.6,1.3c-2,0-3.9-0.3-5.9-1c-8.4-3.3-12.6-13-9.3-21.2c1.7-4.2,4.8-7.3,8.6-8.9 c7.5-3.1,15.9-0.6,20.1,5.9L71,88.9h0.2c1.4,0,2.5,0.6,3.3,1.9c0.7,0.9,0.9,2.1,0.7,3.1c-0.2,1-0.9,1.9-1.9,2.3l-0.2,0.1L32.4,109.7 z M24.5,108.1c-1-2.1-2.9-3.8-4.8-4.6c-1.1-0.3-2.2-0.5-3.1-0.5c-1.3,0-2.6,0.3-3.5,0.7c-2.2,1.1-3.9,2.9-4.7,4.9 c-0.8,2.2-0.7,4.7,0.2,6.6c1.1,2.2,2.9,3.9,4.9,4.7c4.5,1.7,9.4-0.4,11.3-4.8C25.6,112.8,25.5,110.3,24.5,108.1z M87.4,95.7 c0.4,0.2,0.9,0.3,1.3,0.3c0.6,0,1.2-0.1,1.7-0.4l0,0c0.9-0.5,1.6-1.3,1.9-2.3c0.3-1,0.1-2-0.4-2.8c-9.1-16.8-2.8-38,14.1-47.1 c8.2-4.4,17.6-5.4,26.5-2.8c8.9,2.7,16.2,8.6,20.7,16.9c5.5,10.4,5.5,22.7,0,32.8c-1,1.9-0.4,3.9,1.4,4.9c0.7,0.6,1.4,0.6,2.1,0.6 c1.5,0,2.5-0.9,3.2-1.6L160,94l0.1-0.2c11.4-20.4,4-46.3-16.5-57.8c-9.9-5.6-21.4-6.9-32.3-3.8c-10.9,3.1-20,10.3-25.5,20.2 c-7.1,12.6-7.1,28.2-0.1,40.9C86,94.7,86.8,95.4,87.4,95.7z"/>
</svg>
