<svg version="1.1" xmlns="http://www.w3.org/2000/svg" xmlns:xlink="http://www.w3.org/1999/xlink" viewBox="0 0 130.5 97.9" xml:space="preserve">
	<path style="fill: #cccccc;" d="M65.2,65.2c-2.2,0-4.9-1-8.2-3.1c-1.9-1-4.5-2.9-7.9-5.6l-2.5-1.8C25.7,39.5,11.6,29,4.1,23.2l-1.8-1.3 C0.8,20.7,0,19.1,0,17.1v-4.8C0,8.9,1.2,6,3.6,3.6C5.9,1.2,8.8,0,12.2,0h106c3.4,0,6.3,1.2,8.7,3.6s3.6,5.3,3.6,8.7v4.8 c0,2-0.8,3.7-2.3,4.8l-1.3,1c-7.3,5.8-21.7,16.4-43.1,31.9l-2.5,1.8c-3.4,2.7-6,4.6-7.9,5.6C70.2,64.2,67.5,65.2,65.2,65.2z  M127.9,32.4c-6.1,4.8-19.2,14.4-39.2,28.8l-2.5,2c-3.9,3.1-7.1,5.3-9.7,6.6c-4.1,2.4-7.8,3.6-11.2,3.6s-7.1-1.1-11.2-3.3 c-2.4-1.4-5.6-3.6-9.7-6.6l-2.5-2.3C21.2,46.2,8.2,36.6,2.5,32.4C2,32,1.5,32,0.9,32.2S0,33,0,33.6v52c0,3.4,1.2,6.3,3.6,8.7 c2.4,2.4,5.3,3.6,8.7,3.6h106c3.4,0,6.3-1.2,8.7-3.6s3.6-5.3,3.6-8.7v-52c0-0.7-0.3-1.2-0.9-1.5C129,31.8,128.5,31.9,127.9,32.4z"/>
</svg>
