<svg version="1.1" xmlns="http://www.w3.org/2000/svg" xmlns:xlink="http://www.w3.org/1999/xlink" viewBox="0 0 292.3 250.7" xml:space="preserve">
  <path style="fill: #444;" d="M292.2,28.7l-0.1-0.3c0-0.2-0.1-0.4-0.2-0.7c-0.1-0.2-0.3-0.4-0.4-0.6l-0.1-0.2c-0.1-0.1-0.2-0.3-0.4-0.5L265.3,1.3 c-0.1-0.1-0.1-0.1-0.1-0.1L265,1c-0.2-0.1-0.4-0.2-0.5-0.3l-0.1-0.1c-0.1-0.1-0.3-0.2-0.6-0.3c-0.1,0-0.2,0-0.2-0.1 c-0.3-0.1-0.5-0.1-0.8-0.2l-0.2,0c-0.1,0-0.3-0.1-0.5-0.1h-232c-0.2,0-0.3,0-0.4,0.1c-0.1,0-0.2,0-0.3,0c-0.2,0-0.5,0.1-0.7,0.1 c-0.1,0-0.2,0-0.3,0.1c-0.2,0.1-0.4,0.2-0.5,0.3l-0.2,0.1c-0.1,0-0.3,0.1-0.4,0.3c-0.1,0-0.1,0.1-0.1,0.1L1.3,26.4 c-0.2,0.2-0.3,0.4-0.4,0.5c0,0,0,0.1-0.1,0.1l-0.1,0.1c-0.1,0.2-0.3,0.3-0.4,0.6c-0.1,0.3-0.2,0.5-0.2,0.7l-0.1,0.2 C0.1,28.9,0,29.2,0,29.4c0,0.3,0,0.5,0.1,0.7l0,0.2c0,0.2,0.1,0.5,0.1,0.7c0.1,0.3,0.2,0.5,0.3,0.7L0.7,32c0.1,0.1,0.1,0.3,0.3,0.5 l79.9,97.1c0.1,0.2,0.3,0.3,0.4,0.4c-8,12.6-12.2,27.1-12.2,41.9c0,43.4,35.3,78.8,78.7,78.8c43.4,0,78.8-35.3,78.8-78.8 c0-15.8-4.7-31.1-13.7-44.3l78.4-95.2c0.2-0.2,0.2-0.4,0.3-0.6l0.1-0.2c0.1-0.2,0.2-0.4,0.3-0.6c0.1-0.3,0.1-0.5,0.2-0.7l0-0.2 c0-0.2,0.1-0.5,0.1-0.7C292.3,29.1,292.2,28.9,292.2,28.7z M252.7,8.9l-21,25.5H60.8L39.7,8.9H252.7z M186.5,103.3l76-92.3L281.8,30 l-74.5,90.4C201.4,113.5,194.4,107.7,186.5,103.3z M147.9,102.1c38.5,0,69.8,31.3,69.8,69.8c0,38.5-31.3,69.8-69.8,69.8 c-38.5,0-69.8-31.3-69.8-69.8C78.1,133.4,109.4,102.1,147.9,102.1z M224.4,43.3l-45.6,55.3c-0.2,0.2-0.3,0.4-0.4,0.6 c-9.7-4.1-19.9-6.2-30.4-6.2c-11.2,0-22.1,2.4-32.4,7.1L68.2,43.3H224.4z M10.5,30L29.8,11l77.6,93.5c-7.9,4.8-14.9,10.8-20.7,18 L10.5,30z M125.7,178.7l-3.7,21.7c-0.3,1.7,0.4,3.4,1.8,4.4c0.8,0.6,1.7,0.9,2.6,0.9c0.7,0,1.4-0.2,2.1-0.5l19.5-10.3l19.5,10.3 c1.5,0.8,3.4,0.6,4.7-0.3c1.4-1,2.1-2.7,1.8-4.4l-3.7-21.7l15.8-15.4c1.2-1.2,1.6-3,1.1-4.6c-0.5-1.6-1.9-2.8-3.6-3l-21.8-3.2 l-9.8-19.8c-0.7-1.4-2.2-2.3-4-2.3c0,0,0,0,0,0c-1.8,0-3.3,0.9-4,2.3l-9.8,19.8l-21.8,3.2c-1.7,0.2-3.1,1.4-3.6,3 c-0.5,1.6-0.1,3.4,1.1,4.6L125.7,178.7z M161,177.9l2.6,15.1l-13.6-7.1c-1.3-0.7-2.9-0.7-4.2,0l-13.6,7.1l2.6-15.1 c0.3-1.4-0.2-2.9-1.3-4l-11-10.7l15.2-2.2c1.5-0.2,2.7-1.1,3.4-2.4l6.8-13.8l6.8,13.8c0.6,1.3,1.9,2.2,3.4,2.4l15.2,2.2l-11,10.7 C161.2,175,160.7,176.4,161,177.9z"/>
</svg>
