<svg version="1.1" xmlns="http://www.w3.org/2000/svg" xmlns:xlink="http://www.w3.org/1999/xlink" viewBox="0 0 25 25" xml:space="preserve">
	<path style="fill: #cccccc;" d="M24.9,7.3c0,1,0.1,2.8,0.1,5.2s0,4.2-0.1,5.2s-0.2,2-0.5,2.8c-0.3,0.9-0.8,1.7-1.5,2.4s-1.5,1.2-2.4,1.5 c-0.8,0.3-1.7,0.4-2.8,0.5S14.9,25,12.5,25s-4.2,0-5.2-0.1s-2-0.2-2.8-0.5c-0.9-0.3-1.7-0.8-2.4-1.5s-1.2-1.5-1.5-2.4 c-0.3-0.8-0.4-1.7-0.5-2.8S0,14.9,0,12.5s0-4.2,0.1-5.2s0.2-2,0.5-2.8c0.3-0.9,0.8-1.7,1.5-2.4s1.5-1.2,2.4-1.5 c0.8-0.3,1.7-0.4,2.8-0.5S10.1,0,12.5,0s4.2,0,5.2,0.1s2,0.2,2.8,0.5c0.9,0.3,1.7,0.8,2.4,1.5s1.2,1.5,1.5,2.4 C24.7,5.3,24.9,6.2,24.9,7.3z M22.3,19.9c0.2-0.6,0.4-1.6,0.4-3c0-0.8,0.1-2,0.1-3.5v-1.8c0-1.5,0-2.7-0.1-3.5 c-0.1-1.4-0.2-2.4-0.4-3c-0.4-1.2-1.2-2-2.4-2.4c-0.6-0.2-1.6-0.4-3-0.4c-0.8,0-2-0.1-3.5-0.1h-1.8c-1.5,0-2.6,0-3.5,0.1 c-1.4,0.1-2.4,0.2-3,0.4C4,3.2,3.2,4,2.7,5.1c-0.2,0.6-0.4,1.6-0.4,3c0,0.8-0.1,2-0.1,3.5v1.8c0,1.5,0,2.6,0.1,3.5 c0.1,1.4,0.2,2.4,0.4,3c0.5,1.2,1.3,2,2.4,2.4c0.6,0.2,1.6,0.4,3,0.4c0.8,0,2,0.1,3.5,0.1h1.8c1.5,0,2.7,0,3.5-0.1 c1.4-0.1,2.4-0.2,3-0.4C21,21.8,21.8,21,22.3,19.9z M12.5,6.1c1.2,0,2.2,0.3,3.2,0.9s1.8,1.4,2.3,2.3s0.9,2.1,0.9,3.2 s-0.3,2.2-0.9,3.2s-1.4,1.8-2.3,2.3s-2.1,0.9-3.2,0.9s-2.2-0.3-3.2-0.9s-1.8-1.4-2.3-2.3s-0.9-2.1-0.9-3.2s0.3-2.2,0.9-3.2 s1.4-1.8,2.3-2.3S11.3,6.1,12.5,6.1z M12.5,16.7c1.2,0,2.1-0.4,3-1.2s1.2-1.8,1.2-3s-0.4-2.1-1.2-3c-0.8-0.8-1.8-1.2-3-1.2 s-2.1,0.4-3,1.2c-0.8,0.8-1.2,1.8-1.2,3s0.4,2.1,1.2,3C10.4,16.3,11.3,16.7,12.5,16.7z M20.7,5.8c0-0.4-0.1-0.8-0.4-1.1 c-0.3-0.3-0.7-0.4-1.1-0.4c-0.4,0-0.8,0.1-1.1,0.4c-0.3,0.3-0.4,0.7-0.4,1.1c0,0.4,0.1,0.8,0.4,1.1c0.3,0.3,0.7,0.4,1.1,0.4 c0.4,0,0.8-0.1,1-0.4C20.5,6.6,20.7,6.2,20.7,5.8z"/>
</svg>
