<svg version="1.1" xmlns="http://www.w3.org/2000/svg" xmlns:xlink="http://www.w3.org/1999/xlink" viewBox="0 0 25 25" xml:space="preserve">
	<path style="fill: #cccccc;" d="M23.2,0c0.5,0,0.9,0.2,1.3,0.5C24.8,0.9,25,1.3,25,1.8v21.4c0,0.5-0.2,0.9-0.5,1.3c-0.4,0.4-0.8,0.5-1.3,0.5H1.8 c-0.5,0-0.9-0.2-1.3-0.5C0.2,24.1,0,23.7,0,23.2V1.8c0-0.5,0.2-0.9,0.5-1.3C0.9,0.2,1.3,0,1.8,0H23.2z M5.7,7.9 c0.6,0,1.1-0.2,1.5-0.6s0.6-0.9,0.6-1.5c0-0.6-0.2-1.1-0.6-1.5S6.3,3.6,5.7,3.6S4.6,3.8,4.2,4.2C3.8,4.6,3.6,5.1,3.6,5.7 c0,0.6,0.2,1.1,0.6,1.5C4.6,7.7,5.1,7.9,5.7,7.9z M7.5,21.4L7.5,21.4L7.6,9.5H3.9v11.9H7.5z M21.4,21.4v-6.5c0-1.9-0.3-3.2-0.8-4.1 c-0.7-1.1-1.9-1.6-3.6-1.6c-0.9,0-1.6,0.2-2.3,0.6c-0.6,0.3-1,0.8-1.2,1.3h-0.1V9.5H9.9v11.9h3.7v-5.9c0-0.9,0.1-1.6,0.4-2.1 c0.4-0.6,1-0.9,1.8-0.9c0.9,0,1.4,0.4,1.7,1.1c0.2,0.4,0.3,1.2,0.3,2.1v5.8H21.4z"/>
</svg>
