<svg version="1.1" xmlns="http://www.w3.org/2000/svg" xmlns:xlink="http://www.w3.org/1999/xlink" viewBox="0 0 240 240" xml:space="preserve">
	<path style="fill: #444;" d="M3,240h234c1.7,0,3-1.3,3-3v-66.4c0-1.7-1.3-3-3-3h-13.5v-47.8c0-1.7-1.3-3-3-3h-69.6c12.1-7.4,22.7-21.5,28.1-39.3 c4.8-16,4.1-31.1-2.1-42.5c-4.7-8.7-12.1-14.7-21.6-17.4c-11.1-3.2-22.5-1.1-32.1,5.9c0.6-6.3,2.8-15.3,10.6-17.7 c1.6-0.5,2.5-2.2,2-3.7c-0.5-1.6-2.2-2.5-3.8-2c-11.4,3.5-14.3,15.8-14.9,23.6c-9.7-7.1-21.2-9.4-32.4-6.1 c-9.4,2.8-16.9,8.8-21.6,17.4c-6.2,11.3-6.9,26.4-2.1,42.5c5.3,17.7,15.9,31.8,28,39.3H19.5c-1.7,0-3,1.3-3,3v47.8H3 c-1.7,0-3,1.3-3,3V237C0,238.7,1.3,240,3,240z M66.9,75.8c-4.4-14.5-3.8-27.9,1.6-37.9c3.9-7.2,10.1-12.2,18-14.5 c2.8-0.8,5.7-1.2,8.5-1.2c8.3,0,16.3,3.5,23,10c0,0,0,0,0,0c0.2,0.2,0.5,0.4,0.8,0.5c0.1,0,0.1,0.1,0.1,0.1c0.3,0.1,0.7,0.2,1,0.2 c0,0,0.1,0,0.1,0c0.1,0,0.1,0,0.2,0c0.1,0,0.3-0.1,0.4-0.1c0.2,0,0.4-0.1,0.6-0.2c0.2-0.1,0.3-0.2,0.5-0.3c0.1-0.1,0.3-0.1,0.4-0.2 c9-8.8,20.4-12.1,31.5-8.8c7.8,2.3,14.1,7.3,18,14.5c5.4,9.9,6,23.4,1.6,37.9c-8.2,27.3-29.5,45.2-47.4,40c-1.5-0.4-2.9-1-4.3-1.8 c-0.9-0.5-2-0.5-2.8,0c-1.4,0.8-2.9,1.4-4.3,1.8C96.4,121,75.1,103.1,66.9,75.8z M22.5,122.8h195v44.8h-195V122.8z M6,173.6h228V234 H6V173.6z M130.4,182.8H17c-1.7,0-3,1.3-3,3v36.1c0,1.7,1.3,3,3,3h113.4c1.7,0,3-1.3,3-3v-36.1C133.4,184.1,132.1,182.8,130.4,182.8 z M20,188.8h29.2v30.1H20V188.8z M127.4,218.9H55.2v-30.1h72.2V218.9z M202.7,184.1c-10.9,0-19.7,8.9-19.7,19.8s8.9,19.8,19.7,19.8 s19.7-8.9,19.7-19.8S213.5,184.1,202.7,184.1z M202.7,217.6c-7.6,0-13.7-6.2-13.7-13.8s6.2-13.8,13.7-13.8c7.6,0,13.7,6.2,13.7,13.8 S210.2,217.6,202.7,217.6z M145.9,43.7c3.4,1,6,3.1,7.7,6.2c2.3,4.3,2.5,10.1,0.6,16.5c-0.5,1.6,0.4,3.3,2,3.7 c0.3,0.1,0.6,0.1,0.9,0.1c1.3,0,2.5-0.8,2.9-2.1c2.4-7.9,2-15.4-1-21.1c-2.4-4.4-6.4-7.7-11.3-9.1c-1.6-0.5-3.3,0.5-3.7,2.1 C143.4,41.6,144.3,43.2,145.9,43.7z M41.7,135.9c-1.7,0-3,1.3-3,3v12.4c0,1.7,1.3,3,3,3s3-1.3,3-3v-12.4 C44.7,137.2,43.4,135.9,41.7,135.9z M56.3,135.9c-1.7,0-3,1.3-3,3v12.4c0,1.7,1.3,3,3,3s3-1.3,3-3v-12.4 C59.3,137.2,58,135.9,56.3,135.9z M156.5,142.1H84c-1.7,0-3,1.3-3,3s1.3,3,3,3h72.5c1.7,0,3-1.3,3-3S158.2,142.1,156.5,142.1z"/>
</svg>
